<svg id="Layer" xmlns="http://www.w3.org/2000/svg" viewBox="0 0 436.82 162.89"><defs><style>.cls-1,.cls-2{fill:#ffcb05;}.cls-10,.cls-2,.cls-3,.cls-4,.cls-5,.cls-6,.cls-7,.cls-8,.cls-9{fill-rule:evenodd;}.cls-3{fill:#0066b3;}.cls-4{fill:#ed1c24;}.cls-11,.cls-5{fill:#00aeef;}.cls-12,.cls-6{fill:#f58220;}.cls-7{fill:#00a651;}.cls-13,.cls-8{fill:#7670b3;}.cls-14,.cls-9{fill:#c657a0;}.cls-10,.cls-15{fill:#a6ce39;}.cls-16{fill:#231f20;}</style></defs><title>idm-de-logo-color</title><circle class="cls-1" cx="4.08" cy="99.29" r="4.08"/><path class="cls-2" d="M9.85,105.06a4.08,4.08,0,1,1,0,5.77A4.09,4.09,0,0,1,9.85,105.06Z"/><path class="cls-2" d="M18.51,113.72a4.08,4.08,0,1,1,0,5.77A4.07,4.07,0,0,1,18.51,113.72Z"/><path class="cls-3" d="M35.82,113.72a4.08,4.08,0,1,1,0,5.77A4.07,4.07,0,0,1,35.82,113.72Z"/><path class="cls-4" d="M44.47,105.06a4.08,4.08,0,1,1,0,5.77A4.09,4.09,0,0,1,44.47,105.06Z"/><path class="cls-5" d="M61.78,87.75a4.08,4.08,0,1,1,0,5.77A4.09,4.09,0,0,1,61.78,87.75Z"/><path class="cls-6" d="M70.44,79.09a4.08,4.08,0,1,1,0,5.77A4.09,4.09,0,0,1,70.44,79.09Z"/><path class="cls-7" d="M79.09,70.44a4.08,4.08,0,1,1,0,5.77A4.09,4.09,0,0,1,79.09,70.44Z"/><path class="cls-8" d="M87.75,61.78a4.08,4.08,0,1,1,0,5.77A4.09,4.09,0,0,1,87.75,61.78Z"/><path class="cls-5" d="M96.4,53.13a4.08,4.08,0,1,1,0,5.77A4.08,4.08,0,0,1,96.4,53.13Z"/><circle class="cls-1" cx="107.95" cy="47.36" r="4.08"/><path class="cls-5" d="M113.72,35.82a4.08,4.08,0,1,1,0,5.77A4.07,4.07,0,0,1,113.72,35.82Z"/><path class="cls-9" d="M122.37,27.16a4.08,4.08,0,1,1,0,5.77A4.09,4.09,0,0,1,122.37,27.16Z"/><path class="cls-6" d="M131,18.51a4.08,4.08,0,1,1,0,5.77A4.07,4.07,0,0,1,131,18.51Z"/><path class="cls-10" d="M139.68,9.85a4.08,4.08,0,1,1,0,5.77A4.09,4.09,0,0,1,139.68,9.85Z"/><path class="cls-6" d="M148.34,1.2a4.08,4.08,0,1,1,0,5.77A4.07,4.07,0,0,1,148.34,1.2Z"/><path class="cls-3" d="M53.13,96.41a4.08,4.08,0,1,1,0,5.77A4.07,4.07,0,0,1,53.13,96.41Z"/><path class="cls-4" d="M53.13,113.72a4.08,4.08,0,1,1,0,5.77A4.07,4.07,0,0,1,53.13,113.72Z"/><path class="cls-4" d="M61.78,122.37a4.08,4.08,0,1,1,0,5.77A4.09,4.09,0,0,1,61.78,122.37Z"/><path class="cls-4" d="M70.44,131a4.08,4.08,0,1,1,0,5.77A4.07,4.07,0,0,1,70.44,131Z"/><circle class="cls-11" cx="73.32" cy="99.29" r="4.08"/><circle class="cls-11" cx="81.98" cy="107.95" r="4.08"/><path class="cls-5" d="M87.75,113.72a4.08,4.08,0,1,1,0,5.77A4.07,4.07,0,0,1,87.75,113.72Z"/><path class="cls-5" d="M96.4,122.37a4.08,4.08,0,1,1,0,5.77A4.1,4.1,0,0,1,96.4,122.37Z"/><path class="cls-6" d="M79.09,87.75a4.08,4.08,0,1,1,0,5.77A4.09,4.09,0,0,1,79.09,87.75Z"/><path class="cls-6" d="M87.75,96.4a4.08,4.08,0,1,1,0,5.77A4.09,4.09,0,0,1,87.75,96.4Z"/><path class="cls-6" d="M96.4,105.06a4.08,4.08,0,1,1,0,5.77A4.1,4.1,0,0,1,96.4,105.06Z"/><circle class="cls-12" cx="107.95" cy="116.6" r="4.08"/><path class="cls-6" d="M113.72,122.37a4.08,4.08,0,1,1,0,5.77A4.09,4.09,0,0,1,113.72,122.37Z"/><path class="cls-6" d="M122.37,131a4.08,4.08,0,1,1,0,5.77A4.07,4.07,0,0,1,122.37,131Z"/><path class="cls-6" d="M131,139.68a4.08,4.08,0,1,1,0,5.77A4.09,4.09,0,0,1,131,139.68Z"/><path class="cls-6" d="M139.68,148.34a4.08,4.08,0,1,1,0,5.77A4.07,4.07,0,0,1,139.68,148.34Z"/><path class="cls-7" d="M87.75,79.09a4.08,4.08,0,1,1,0,5.77A4.09,4.09,0,0,1,87.75,79.09Z"/><path class="cls-8" d="M96.4,70.44a4.08,4.08,0,1,1,0,5.77A4.1,4.1,0,0,1,96.4,70.44Z"/><path class="cls-8" d="M105.06,79.09a4.08,4.08,0,1,1,0,5.77A4.09,4.09,0,0,1,105.06,79.09Z"/><path class="cls-8" d="M113.72,87.75a4.08,4.08,0,1,1,0,5.77A4.09,4.09,0,0,1,113.72,87.75Z"/><circle class="cls-13" cx="125.26" cy="99.29" r="4.08"/><path class="cls-8" d="M131,105.06a4.08,4.08,0,1,1,0,5.77A4.09,4.09,0,0,1,131,105.06Z"/><circle class="cls-11" cx="107.95" cy="64.67" r="4.08"/><path class="cls-5" d="M113.72,70.44a4.08,4.08,0,1,1,0,5.77A4.09,4.09,0,0,1,113.72,70.44Z"/><path class="cls-5" d="M122.37,79.09a4.08,4.08,0,1,1,0,5.77A4.09,4.09,0,0,1,122.37,79.09Z"/><path class="cls-5" d="M131,87.75a4.08,4.08,0,1,1,0,5.77A4.09,4.09,0,0,1,131,87.75Z"/><circle class="cls-1" cx="116.6" cy="56.01" r="4.08"/><circle class="cls-1" cx="125.26" cy="64.67" r="4.08"/><circle class="cls-11" cx="125.26" cy="47.36" r="4.08"/><path class="cls-5" d="M131,53.13a4.08,4.08,0,1,1,0,5.77A4.07,4.07,0,0,1,131,53.13Z"/><path class="cls-5" d="M139.68,61.78a4.08,4.08,0,1,1,0,5.77A4.09,4.09,0,0,1,139.68,61.78Z"/><path class="cls-5" d="M148.34,70.44a4.08,4.08,0,1,1,0,5.77A4.09,4.09,0,0,1,148.34,70.44Z"/><path class="cls-9" d="M131,35.82a4.08,4.08,0,1,1,0,5.77A4.07,4.07,0,0,1,131,35.82Z"/><path class="cls-9" d="M139.68,44.47a4.08,4.08,0,1,1,0,5.77A4.09,4.09,0,0,1,139.68,44.47Z"/><path class="cls-9" d="M148.34,53.13a4.08,4.08,0,1,1,0,5.77A4.07,4.07,0,0,1,148.34,53.13Z"/><circle class="cls-14" cx="159.88" cy="64.67" r="4.08"/><path class="cls-9" d="M165.65,70.44a4.08,4.08,0,1,1,0,5.77A4.09,4.09,0,0,1,165.65,70.44Z"/><path class="cls-9" d="M174.3,79.09a4.08,4.08,0,1,1,0,5.77A4.09,4.09,0,0,1,174.3,79.09Z"/><path class="cls-9" d="M183,87.75a4.08,4.08,0,1,1,0,5.77A4.09,4.09,0,0,1,183,87.75Z"/><path class="cls-6" d="M139.68,27.16a4.08,4.08,0,1,1,0,5.77A4.09,4.09,0,0,1,139.68,27.16Z"/><path class="cls-6" d="M148.34,35.82a4.08,4.08,0,1,1,0,5.77A4.07,4.07,0,0,1,148.34,35.82Z"/><circle class="cls-12" cx="159.88" cy="47.36" r="4.08"/><circle class="cls-12" cx="168.53" cy="56.01" r="4.08"/><circle class="cls-12" cx="177.19" cy="64.67" r="4.08"/><path class="cls-6" d="M183,70.44a4.08,4.08,0,1,1,0,5.77A4.09,4.09,0,0,1,183,70.44Z"/><path class="cls-6" d="M191.61,79.09a4.08,4.08,0,1,1,0,5.77A4.1,4.1,0,0,1,191.61,79.09Z"/><path class="cls-6" d="M200.27,87.75a4.08,4.08,0,1,1,0,5.77A4.09,4.09,0,0,1,200.27,87.75Z"/><path class="cls-10" d="M148.34,18.51a4.08,4.08,0,1,1,0,5.77A4.07,4.07,0,0,1,148.34,18.51Z"/><path class="cls-10" d="M157,27.16a4.08,4.08,0,1,1,0,5.77A4.09,4.09,0,0,1,157,27.16Z"/><path class="cls-10" d="M165.65,35.82a4.08,4.08,0,1,1,0,5.77A4.07,4.07,0,0,1,165.65,35.82Z"/><circle class="cls-15" cx="177.19" cy="47.36" r="4.08"/><path class="cls-10" d="M183,53.13a4.08,4.08,0,1,1,0,5.77A4.07,4.07,0,0,1,183,53.13Z"/><path class="cls-10" d="M191.61,61.78a4.08,4.08,0,1,1,0,5.77A4.1,4.1,0,0,1,191.61,61.78Z"/><path class="cls-6" d="M157,9.85a4.08,4.08,0,1,1,0,5.77A4.09,4.09,0,0,1,157,9.85Z"/><circle class="cls-12" cx="168.53" cy="21.39" r="4.08"/><path class="cls-6" d="M174.3,27.16a4.08,4.08,0,1,1,0,5.77A4.09,4.09,0,0,1,174.3,27.16Z"/><path class="cls-6" d="M183,35.82a4.08,4.08,0,1,1,0,5.77A4.07,4.07,0,0,1,183,35.82Z"/><path class="cls-6" d="M191.61,44.47a4.08,4.08,0,1,1,0,5.77A4.1,4.1,0,0,1,191.61,44.47Z"/><circle class="cls-12" cx="203.16" cy="56.01" r="4.08"/><circle class="cls-12" cx="211.81" cy="64.67" r="4.08"/><path class="cls-6" d="M217.58,70.44a4.08,4.08,0,1,1,0,5.77A4.09,4.09,0,0,1,217.58,70.44Z"/><path class="cls-16" d="M414.2,88.28a.23.23,0,0,1,.23-.24h2.85a4.44,4.44,0,1,1,0,8.88h-2.85a.24.24,0,0,1-.23-.25ZM417.08,96a3.57,3.57,0,1,0,0-7.14h-1.91V96Z"/><path class="cls-16" d="M423.34,88.28a.24.24,0,0,1,.24-.24h5a.24.24,0,0,1,.24.24v.37a.24.24,0,0,1-.24.24h-4.28V92H428a.26.26,0,0,1,.24.24v.37a.24.24,0,0,1-.24.24h-3.66v3.24h4.28a.24.24,0,0,1,.24.24v.36a.25.25,0,0,1-.24.25h-5a.25.25,0,0,1-.24-.25Z"/><path class="cls-16" d="M430.5,88.28a.24.24,0,0,1,.24-.24H434a2.73,2.73,0,0,1,2.78,2.7,2.84,2.84,0,0,1-1.89,2.59l1.75,3.22a.24.24,0,0,1-.22.37h-.65a.23.23,0,0,1-.2-.12l-1.69-3.36h-2.44v3.23a.25.25,0,0,1-.24.25h-.5a.25.25,0,0,1-.24-.25ZM434,92.6A1.82,1.82,0,1,0,434,89h-2.47V92.6Z"/><path class="cls-16" d="M226.59,88.49a.25.25,0,0,1,.24-.25h.51a.26.26,0,0,1,.24.25v8.39a.25.25,0,0,1-.24.24h-.51a.24.24,0,0,1-.24-.24Z"/><path class="cls-16" d="M229.8,88.35a.23.23,0,0,1,.24-.23h.32l5.74,7.12h0V88.49a.25.25,0,0,1,.24-.25h.45a.25.25,0,0,1,.24.25V97a.23.23,0,0,1-.24.23h-.23L230.74,90h0v6.9a.24.24,0,0,1-.24.24H230a.24.24,0,0,1-.24-.24Z"/><path class="cls-16" d="M240.54,89.09h-2.21a.25.25,0,0,1-.25-.24v-.36a.25.25,0,0,1,.25-.25h5.4a.25.25,0,0,1,.24.25v.36a.24.24,0,0,1-.24.24h-2.22v7.79a.24.24,0,0,1-.24.24h-.49a.25.25,0,0,1-.24-.24Z"/><path class="cls-16" d="M245,88.49a.25.25,0,0,1,.24-.25h5a.25.25,0,0,1,.25.25v.36a.25.25,0,0,1-.25.24H246v3.1h3.66a.24.24,0,0,1,.24.24v.37a.24.24,0,0,1-.24.24H246v3.23h4.28a.25.25,0,0,1,.25.24v.37a.25.25,0,0,1-.25.24h-5a.24.24,0,0,1-.24-.24Z"/><path class="cls-16" d="M252.16,88.49a.25.25,0,0,1,.24-.25h3.3A2.73,2.73,0,0,1,258.47,91a2.82,2.82,0,0,1-1.88,2.58l1.74,3.22a.24.24,0,0,1-.21.37h-.65a.23.23,0,0,1-.21-.11l-1.69-3.36h-2.43v3.23a.25.25,0,0,1-.25.24h-.49a.24.24,0,0,1-.24-.24Zm3.47,4.32a1.82,1.82,0,1,0,0-3.64h-2.47v3.64Z"/><path class="cls-16" d="M260.2,88.35a.23.23,0,0,1,.24-.23h.32l5.74,7.12h0V88.49a.25.25,0,0,1,.24-.25h.45a.25.25,0,0,1,.24.25V97a.23.23,0,0,1-.24.23H267L261.14,90h0v6.9a.24.24,0,0,1-.24.24h-.45a.24.24,0,0,1-.24-.24Z"/><path class="cls-16" d="M268.46,96.79l3.87-8.53a.23.23,0,0,1,.22-.14h.13a.22.22,0,0,1,.21.14l3.85,8.53a.23.23,0,0,1-.22.33H276a.23.23,0,0,1-.21-.14l-.95-2.09h-4.52L269.4,97a.23.23,0,0,1-.22.14h-.51A.22.22,0,0,1,268.46,96.79Zm6.05-2.69-1.86-4.16h-.1l-1.86,4.16Z"/><path class="cls-16" d="M278.51,89.09H276.3a.25.25,0,0,1-.25-.24v-.36a.25.25,0,0,1,.25-.25h5.4a.25.25,0,0,1,.24.25v.36a.24.24,0,0,1-.24.24h-2.22v7.79a.24.24,0,0,1-.24.24h-.48a.25.25,0,0,1-.25-.24Z"/><path class="cls-16" d="M283.22,88.49a.25.25,0,0,1,.24-.25H284a.25.25,0,0,1,.24.25v8.39a.24.24,0,0,1-.24.24h-.51a.24.24,0,0,1-.24-.24Z"/><path class="cls-16" d="M290.35,88.12a4.57,4.57,0,1,1-4.57,4.57A4.57,4.57,0,0,1,290.35,88.12Zm0,8.24a3.68,3.68,0,1,0-3.68-3.67A3.7,3.7,0,0,0,290.35,96.36Z"/><path class="cls-16" d="M296.51,88.35a.24.24,0,0,1,.25-.23h.31l5.75,7.12h0V88.49a.25.25,0,0,1,.24-.25h.44a.26.26,0,0,1,.25.25V97a.24.24,0,0,1-.25.23h-.23L297.46,90h0v6.9a.24.24,0,0,1-.24.24h-.44a.25.25,0,0,1-.25-.24Z"/><path class="cls-16" d="M304.77,96.79l3.88-8.53a.22.22,0,0,1,.21-.14H309a.23.23,0,0,1,.22.14l3.85,8.53a.23.23,0,0,1-.22.33h-.51a.24.24,0,0,1-.22-.14l-.94-2.09h-4.52L305.72,97a.26.26,0,0,1-.22.14H305A.23.23,0,0,1,304.77,96.79Zm6.06-2.69c-.63-1.38-1.24-2.77-1.86-4.16h-.11L307,94.1Z"/><path class="cls-16" d="M314.07,88.49a.25.25,0,0,1,.24-.25h.49a.26.26,0,0,1,.25.25v7.78h3.67a.24.24,0,0,1,.24.24v.37a.24.24,0,0,1-.24.24h-4.41a.24.24,0,0,1-.24-.24Z"/><path class="cls-16" d="M319.94,88.49a.25.25,0,0,1,.24-.25h5a.25.25,0,0,1,.25.25v.36a.25.25,0,0,1-.25.24h-4.28v3.1h3.66a.24.24,0,0,1,.24.24v.37a.24.24,0,0,1-.24.24h-3.66v3.23h4.28a.25.25,0,0,1,.25.24v.37a.25.25,0,0,1-.25.24h-5a.24.24,0,0,1-.24-.24Z"/><path class="cls-16" d="M327.11,88.49a.25.25,0,0,1,.24-.25h3.3A2.73,2.73,0,0,1,333.42,91a2.82,2.82,0,0,1-1.88,2.58l1.75,3.22a.24.24,0,0,1-.22.37h-.65a.23.23,0,0,1-.21-.11l-1.69-3.36h-2.43v3.23a.25.25,0,0,1-.25.24h-.49a.24.24,0,0,1-.24-.24Zm3.47,4.32a1.82,1.82,0,1,0,0-3.64h-2.47v3.64Z"/><path class="cls-16" d="M344.73,73.62h-6.28a.75.75,0,0,1-.73-.76V70.64a.74.74,0,0,1,.73-.75H355a.74.74,0,0,1,.73.75v2.22a.75.75,0,0,1-.73.76h-6.28V96.9a.78.78,0,0,1-.74.76h-2.54a.78.78,0,0,1-.74-.76Z"/><path class="cls-16" d="M354.26,96.63l11.84-26.7a.89.89,0,0,1,.65-.44h.39a.89.89,0,0,1,.65.44l11.76,26.7a.69.69,0,0,1-.65,1h-2.43a.91.91,0,0,1-.89-.6l-2.39-5.43H360.58c-.77,1.82-1.58,3.61-2.35,5.43a1,1,0,0,1-.89.6h-2.42A.7.7,0,0,1,354.26,96.63Zm17.47-8.41L367,77.35h-.19l-4.7,10.87Z"/><path class="cls-16" d="M394.59,69.49A13.79,13.79,0,0,1,404,73.18a.78.78,0,0,1,0,1.11c-.58.64-1.15,1.23-1.73,1.87-.31.35-.62.31-1,0a10.09,10.09,0,0,0-6.55-2.7c-5.48,0-9.68,4.76-9.68,10.31S389.23,94,394.71,94a13.19,13.19,0,0,0,5.78-1.35V88.22h-3.78a.71.71,0,0,1-.73-.72V85.2a.71.71,0,0,1,.73-.75h7a.73.73,0,0,1,.7.75c0,3.17,0,6.43,0,9.6a1,1,0,0,1-.31.64,18.93,18.93,0,0,1-9.57,2.61,14.29,14.29,0,0,1,0-28.56Z"/><path d="M152.36,105.45a.78.78,0,0,1,.82-.71h.73a.84.84,0,0,1,.78.47l10,22.11h.14l10-22.11a.78.78,0,0,1,.77-.47h.73a.77.77,0,0,1,.82.71l5.37,31.46a.81.81,0,0,1-.82,1.08h-4.14a1,1,0,0,1-.86-.7L174,119.54h-.14l-8,18.41a.78.78,0,0,1-.78.51h-.82a.82.82,0,0,1-.77-.51l-8.06-18.41h-.13l-2.64,17.75a.89.89,0,0,1-.82.7h-4.1a.85.85,0,0,1-.86-1.08Z"/><path d="M186.23,136.77l14.16-31.51a.81.81,0,0,1,.77-.52h.46a.78.78,0,0,1,.77.52l14,31.51a.83.83,0,0,1-.78,1.22h-4a1.31,1.31,0,0,1-1.32-.93L208.12,132H194.51l-2.23,5.06A1.38,1.38,0,0,1,191,138h-4A.83.83,0,0,1,186.23,136.77Zm19.66-10-4.55-10.3h-.13l-4.46,10.3Z"/><path d="M222,110.83h-7a.87.87,0,0,1-.86-.89V106.1a.87.87,0,0,1,.86-.89h19.9a.87.87,0,0,1,.86.89v3.84a.87.87,0,0,1-.86.89h-7V137.1a.91.91,0,0,1-.86.89h-4.24a.91.91,0,0,1-.86-.89Z"/><path d="M242.13,106.1a.91.91,0,0,1,.86-.89h4.24a.87.87,0,0,1,.86.89v12.41h14.84V106.1a.87.87,0,0,1,.86-.89H268a.91.91,0,0,1,.87.89v31a.91.91,0,0,1-.87.89h-4.19a.87.87,0,0,1-.86-.89V124.18H248.09V137.1a.87.87,0,0,1-.86.89H243a.91.91,0,0,1-.86-.89Z"/><path d="M277.81,106.1a.88.88,0,0,1,.87-.89h18.53a.87.87,0,0,1,.86.89v3.84a.87.87,0,0,1-.86.89H283.73v7.68H295a.91.91,0,0,1,.87.89v3.89a.88.88,0,0,1-.87.89H283.73v8.19h13.48a.87.87,0,0,1,.86.89v3.84a.87.87,0,0,1-.86.89H278.68a.88.88,0,0,1-.87-.89Z"/><path d="M308.59,105.45a.77.77,0,0,1,.82-.71h.72a.84.84,0,0,1,.78.47l10,22.11h.14l10-22.11a.79.79,0,0,1,.77-.47h.73a.77.77,0,0,1,.82.71l5.37,31.46a.8.8,0,0,1-.82,1.08H333.8a1,1,0,0,1-.86-.7l-2.69-17.75h-.13l-8,18.41a.77.77,0,0,1-.77.51h-.82a.83.83,0,0,1-.78-.51l-8-18.41h-.14L309,137.29a.89.89,0,0,1-.82.7H304a.85.85,0,0,1-.86-1.08Z"/><path d="M342.45,136.77l14.16-31.51a.82.82,0,0,1,.77-.52h.46a.77.77,0,0,1,.77.52l14,31.51a.83.83,0,0,1-.77,1.22h-4c-.69,0-1-.28-1.32-.93L364.35,132H350.74l-2.23,5.06a1.38,1.38,0,0,1-1.32.93h-4A.83.83,0,0,1,342.45,136.77Zm19.67-10-4.56-10.3h-.13L353,126.8Z"/><path d="M378.23,110.83h-7a.88.88,0,0,1-.87-.89V106.1a.88.88,0,0,1,.87-.89h19.89a.87.87,0,0,1,.86.89v3.84a.87.87,0,0,1-.86.89h-7V137.1a.91.91,0,0,1-.86.89h-4.24a.91.91,0,0,1-.86-.89Z"/><path d="M397.44,106.1a.91.91,0,0,1,.86-.89h4.24a.91.91,0,0,1,.86.89v31a.91.91,0,0,1-.86.89H398.3a.91.91,0,0,1-.86-.89Z"/><path d="M411.46,106.34a1.1,1.1,0,0,1,1.09-1.13h4a1.13,1.13,0,0,1,1.09,1.13V119l11.47-13.3a1.1,1.1,0,0,1,.86-.47h4.56a1,1,0,0,1,.72,1.69l-11.88,13.76,12.75,15.69a1,1,0,0,1-.82,1.64h-5a1,1,0,0,1-.82-.33l-11.88-15.08v14.29a1.12,1.12,0,0,1-1.09,1.12h-4a1.09,1.09,0,0,1-1.09-1.12Z"/><path class="cls-16" d="M228.6,151.53h-2.29a.44.44,0,0,1-.43-.45v-1.49a.67.67,0,0,1,.14-.36l3.48-2.7h2.19a.44.44,0,0,1,.43.45V162.2a.44.44,0,0,1-.43.45h-2.64a.45.45,0,0,1-.45-.45Z"/><path class="cls-16" d="M234.77,158.86v-2.52l8.31-9.93a.42.42,0,0,1,.36-.14h1.71a.45.45,0,0,1,.45.45l0,9.72h1.88a.43.43,0,0,1,.45.43v2a.45.45,0,0,1-.45.45h-1.88l0,2.92a.46.46,0,0,1-.45.45h-2.55a.46.46,0,0,1-.45-.45v-2.89h-7A.45.45,0,0,1,234.77,158.86Zm7.52-2.49V152l-3.78,4.41Z"/><path class="cls-16" d="M250.7,160.19a1.34,1.34,0,0,1,1.36,1.35,1.36,1.36,0,1,1-1.36-1.35Z"/><path class="cls-16" d="M261.56,146.15a.46.46,0,0,1,.43-.33h.38a.46.46,0,0,1,.41.26l4.71,13.06h.12l4.65-13.06a.46.46,0,0,1,.4-.26H273a.46.46,0,0,1,.43.33l3.07,15.93c.08.33-.07.57-.42.57h-1a.46.46,0,0,1-.42-.33l-2.12-12.21h-.1l-4.38,12.52a.49.49,0,0,1-.41.26h-.43a.49.49,0,0,1-.4-.26l-4.43-12.52h-.1l-2.07,12.21a.45.45,0,0,1-.43.33h-.95c-.36,0-.5-.24-.43-.57Z"/><path class="cls-16" d="M277.21,162l7.24-16a.43.43,0,0,1,.41-.26h.24a.43.43,0,0,1,.4.26l7.19,16a.41.41,0,0,1-.4.61h-1a.44.44,0,0,1-.41-.26l-1.76-3.91h-8.46L279,162.39a.42.42,0,0,1-.4.26h-.95A.42.42,0,0,1,277.21,162Zm4.1-19.28a1.13,1.13,0,1,1,1.12,1.11A1.12,1.12,0,0,1,281.31,142.76ZM288.53,157c-1.17-2.59-2.31-5.19-3.48-7.78h-.19L281.38,157Zm-2.2-14.25a1.14,1.14,0,1,1,1.12,1.11A1.12,1.12,0,0,1,286.33,142.76Z"/><path class="cls-16" d="M294.58,146.5a.45.45,0,0,1,.45-.45h6.17a5.11,5.11,0,0,1,5.19,5,5.29,5.29,0,0,1-3.52,4.84l3.26,6a.45.45,0,0,1-.41.69h-1.21a.41.41,0,0,1-.38-.21L301,156.16h-4.55v6a.46.46,0,0,1-.45.45H295a.45.45,0,0,1-.45-.45Zm6.5,8.09a3.41,3.41,0,1,0,0-6.81h-4.62v6.81Z"/><path class="cls-16" d="M307.89,161.78l8.65-14v-.07H309a.47.47,0,0,1-.45-.45v-.76a.48.48,0,0,1,.45-.45h9.65a.47.47,0,0,1,.45.45v.31L310.34,161v0h7.87a.45.45,0,0,1,.45.45v.76a.45.45,0,0,1-.45.45h-9.87a.47.47,0,0,1-.45-.45Z"/></svg>