<?xml version="1.0" encoding="utf-8"?>
<!-- Generator: Adobe Illustrator 24.0.3, SVG Export Plug-In . SVG Version: 6.00 Build 0)  -->
<svg version="1.1" id="Layer" xmlns="http://www.w3.org/2000/svg" xmlns:xlink="http://www.w3.org/1999/xlink" x="0px" y="0px"
	 viewBox="0 0 498.52 173.9" style="enable-background:new 0 0 498.52 173.9;" xml:space="preserve">
<style type="text/css">
	.st0{fill-rule:evenodd;clip-rule:evenodd;fill:#FFCB05;}
	.st1{fill-rule:evenodd;clip-rule:evenodd;fill:#0066B3;}
	.st2{fill-rule:evenodd;clip-rule:evenodd;fill:#ED1C24;}
	.st3{fill-rule:evenodd;clip-rule:evenodd;fill:#00AEEF;}
	.st4{fill-rule:evenodd;clip-rule:evenodd;fill:#F58220;}
	.st5{fill-rule:evenodd;clip-rule:evenodd;fill:#00A651;}
	.st6{fill-rule:evenodd;clip-rule:evenodd;fill:#7670B3;}
	.st7{fill-rule:evenodd;clip-rule:evenodd;fill:#C657A0;}
	.st8{fill-rule:evenodd;clip-rule:evenodd;fill:#A6CE39;}
</style>
<g>
	<g>
		<circle class="st0" cx="4.08" cy="99.29" r="4.08"/>
		<path class="st0" d="M9.85,105.06c1.59-1.59,4.18-1.59,5.77,0c1.59,1.59,1.59,4.18,0,5.77c-1.59,1.59-4.18,1.59-5.77,0
			C8.26,109.24,8.26,106.65,9.85,105.06z"/>
		<path class="st0" d="M18.51,113.72c1.59-1.59,4.18-1.59,5.77,0c1.59,1.59,1.59,4.18,0,5.77c-1.59,1.59-4.18,1.59-5.77,0
			C16.91,117.89,16.91,115.31,18.51,113.72z"/>
		<path class="st1" d="M35.82,113.72c1.59-1.59,4.18-1.59,5.77,0c1.59,1.59,1.59,4.18,0,5.77c-1.59,1.59-4.18,1.59-5.77,0
			C34.22,117.89,34.22,115.31,35.82,113.72z"/>
		<path class="st2" d="M44.47,105.06c1.59-1.59,4.18-1.59,5.77,0c1.59,1.59,1.59,4.18,0,5.77c-1.59,1.59-4.18,1.59-5.77,0
			C42.88,109.24,42.88,106.65,44.47,105.06z"/>
		<path class="st3" d="M61.78,87.75c1.59-1.59,4.18-1.59,5.77,0c1.59,1.59,1.59,4.18,0,5.77c-1.59,1.59-4.18,1.59-5.77,0
			C60.19,91.93,60.19,89.34,61.78,87.75z"/>
		<path class="st4" d="M70.44,79.09c1.59-1.59,4.18-1.59,5.77,0c1.59,1.59,1.59,4.18,0,5.77c-1.59,1.59-4.18,1.59-5.77,0
			C68.85,83.27,68.85,80.69,70.44,79.09z"/>
		<path class="st5" d="M79.09,70.44c1.59-1.59,4.18-1.59,5.77,0c1.59,1.59,1.59,4.18,0,5.77c-1.59,1.59-4.18,1.59-5.77,0
			C77.5,74.62,77.5,72.03,79.09,70.44z"/>
		<path class="st6" d="M87.75,61.78c1.59-1.59,4.18-1.59,5.77,0c1.59,1.59,1.59,4.18,0,5.77c-1.59,1.59-4.18,1.59-5.77,0
			C86.16,65.96,86.16,63.38,87.75,61.78z"/>
		<path class="st3" d="M96.4,53.13c1.59-1.59,4.18-1.59,5.77,0c1.59,1.59,1.59,4.18,0,5.77c-1.59,1.59-4.18,1.59-5.77,0
			C94.81,57.3,94.81,54.72,96.4,53.13z"/>
		<circle class="st0" cx="107.95" cy="47.36" r="4.08"/>
		<path class="st3" d="M113.72,35.82c1.59-1.59,4.18-1.59,5.77,0c1.59,1.59,1.59,4.18,0,5.77c-1.59,1.59-4.18,1.59-5.77,0
			C112.12,39.99,112.12,37.41,113.72,35.82z"/>
		<path class="st7" d="M122.37,27.16c1.59-1.59,4.18-1.59,5.77,0c1.59,1.59,1.59,4.18,0,5.77c-1.59,1.59-4.18,1.59-5.77,0
			C120.78,31.34,120.78,28.75,122.37,27.16z"/>
		<path class="st4" d="M131.03,18.51c1.59-1.59,4.18-1.59,5.77,0c1.59,1.59,1.59,4.18,0,5.77c-1.59,1.59-4.18,1.59-5.77,0
			C129.43,22.68,129.43,20.1,131.03,18.51z"/>
		<path class="st8" d="M139.68,9.85c1.59-1.59,4.18-1.59,5.77,0c1.59,1.59,1.59,4.18,0,5.77c-1.59,1.59-4.18,1.59-5.77,0
			C138.09,14.03,138.09,11.44,139.68,9.85z"/>
		<path class="st4" d="M148.34,1.2c1.59-1.59,4.18-1.59,5.77,0c1.59,1.59,1.59,4.18,0,5.77c-1.59,1.59-4.18,1.59-5.77,0
			C146.74,5.37,146.74,2.79,148.34,1.2z"/>
		<path class="st1" d="M53.13,96.41c1.59-1.59,4.18-1.59,5.77,0c1.59,1.59,1.59,4.18,0,5.77c-1.59,1.59-4.18,1.59-5.77,0
			C51.53,100.58,51.53,98,53.13,96.41z"/>
		<path class="st2" d="M53.13,113.72c1.59-1.59,4.18-1.59,5.77,0c1.59,1.59,1.59,4.18,0,5.77c-1.59,1.59-4.18,1.59-5.77,0
			C51.53,117.89,51.53,115.31,53.13,113.72z"/>
		<path class="st2" d="M61.78,122.37c1.59-1.59,4.18-1.59,5.77,0c1.59,1.59,1.59,4.18,0,5.77c-1.59,1.59-4.18,1.59-5.77,0
			C60.19,126.55,60.19,123.96,61.78,122.37z"/>
		<path class="st2" d="M70.44,131.03c1.59-1.59,4.18-1.59,5.77,0c1.59,1.59,1.59,4.18,0,5.77c-1.59,1.59-4.18,1.59-5.77,0
			C68.84,135.2,68.84,132.62,70.44,131.03z"/>
		<circle class="st3" cx="73.32" cy="99.29" r="4.08"/>
		<circle class="st3" cx="81.98" cy="107.95" r="4.08"/>
		<path class="st3" d="M87.75,113.72c1.59-1.59,4.18-1.59,5.77,0c1.59,1.59,1.59,4.18,0,5.77c-1.59,1.59-4.18,1.59-5.77,0
			C86.16,117.89,86.16,115.31,87.75,113.72z"/>
		<path class="st3" d="M96.4,122.37c1.59-1.59,4.18-1.59,5.77,0c1.59,1.59,1.59,4.18,0,5.77c-1.59,1.59-4.18,1.59-5.77,0
			C94.81,126.55,94.81,123.96,96.4,122.37z"/>
		<path class="st4" d="M79.09,87.75c1.59-1.59,4.18-1.59,5.77,0c1.59,1.59,1.59,4.18,0,5.77c-1.59,1.59-4.18,1.59-5.77,0
			C77.5,91.93,77.5,89.34,79.09,87.75z"/>
		<path class="st4" d="M87.75,96.4c1.59-1.59,4.18-1.59,5.77,0c1.59,1.59,1.59,4.18,0,5.77c-1.59,1.59-4.18,1.59-5.77,0
			C86.16,100.58,86.16,98,87.75,96.4z"/>
		<path class="st4" d="M96.4,105.06c1.59-1.59,4.18-1.59,5.77,0c1.59,1.59,1.59,4.18,0,5.77c-1.59,1.59-4.18,1.59-5.77,0
			C94.81,109.24,94.81,106.65,96.4,105.06z"/>
		<circle class="st4" cx="107.95" cy="116.6" r="4.08"/>
		<path class="st4" d="M113.72,122.37c1.59-1.59,4.18-1.59,5.77,0c1.59,1.59,1.59,4.18,0,5.77c-1.59,1.59-4.18,1.59-5.77,0
			C112.12,126.55,112.12,123.96,113.72,122.37z"/>
		<path class="st4" d="M122.37,131.03c1.59-1.59,4.18-1.59,5.77,0c1.59,1.59,1.59,4.18,0,5.77c-1.59,1.59-4.18,1.59-5.77,0
			C120.78,135.2,120.78,132.62,122.37,131.03z"/>
		<path class="st4" d="M131.03,139.68c1.59-1.59,4.18-1.59,5.77,0c1.59,1.59,1.59,4.18,0,5.77c-1.59,1.59-4.18,1.59-5.77,0
			C129.43,143.86,129.43,141.28,131.03,139.68z"/>
		<path class="st4" d="M139.68,148.34c1.59-1.59,4.18-1.59,5.77,0c1.59,1.59,1.59,4.18,0,5.77c-1.59,1.59-4.18,1.59-5.77,0
			C138.09,152.51,138.09,149.93,139.68,148.34z"/>
		<path class="st5" d="M87.75,79.09c1.59-1.59,4.18-1.59,5.77,0c1.59,1.59,1.59,4.18,0,5.77c-1.59,1.59-4.18,1.59-5.77,0
			C86.16,83.27,86.16,80.69,87.75,79.09z"/>
		<path class="st6" d="M96.4,70.44c1.59-1.59,4.18-1.59,5.77,0c1.59,1.59,1.59,4.18,0,5.77c-1.59,1.59-4.18,1.59-5.77,0
			C94.81,74.62,94.81,72.03,96.4,70.44z"/>
		<path class="st6" d="M105.06,79.09c1.59-1.59,4.18-1.59,5.77,0c1.59,1.59,1.59,4.18,0,5.77c-1.59,1.59-4.18,1.59-5.77,0
			C103.47,83.27,103.47,80.69,105.06,79.09z"/>
		<path class="st6" d="M113.72,87.75c1.59-1.59,4.18-1.59,5.77,0c1.59,1.59,1.59,4.18,0,5.77c-1.59,1.59-4.18,1.59-5.77,0
			C112.12,91.93,112.12,89.34,113.72,87.75z"/>
		<circle class="st6" cx="125.26" cy="99.29" r="4.08"/>
		<path class="st6" d="M131.03,105.06c1.59-1.59,4.18-1.59,5.77,0c1.59,1.59,1.59,4.18,0,5.77c-1.59,1.59-4.18,1.59-5.77,0
			C129.43,109.24,129.43,106.65,131.03,105.06z"/>
		<circle class="st3" cx="107.95" cy="64.67" r="4.08"/>
		<path class="st3" d="M113.72,70.44c1.59-1.59,4.18-1.59,5.77,0c1.59,1.59,1.59,4.18,0,5.77c-1.59,1.59-4.18,1.59-5.77,0
			C112.12,74.62,112.12,72.03,113.72,70.44z"/>
		<path class="st3" d="M122.37,79.09c1.59-1.59,4.18-1.59,5.77,0c1.59,1.59,1.59,4.18,0,5.77c-1.59,1.59-4.18,1.59-5.77,0
			C120.78,83.27,120.78,80.69,122.37,79.09z"/>
		<path class="st3" d="M131.03,87.75c1.59-1.59,4.18-1.59,5.77,0c1.59,1.59,1.59,4.18,0,5.77c-1.59,1.59-4.18,1.59-5.77,0
			C129.43,91.93,129.43,89.34,131.03,87.75z"/>
		<circle class="st0" cx="116.6" cy="56.01" r="4.08"/>
		<circle class="st0" cx="125.26" cy="64.67" r="4.08"/>
		<circle class="st3" cx="125.26" cy="47.36" r="4.08"/>
		<path class="st3" d="M131.03,53.13c1.59-1.59,4.18-1.59,5.77,0c1.59,1.59,1.59,4.18,0,5.77c-1.59,1.59-4.18,1.59-5.77,0
			C129.43,57.3,129.43,54.72,131.03,53.13z"/>
		<path class="st3" d="M139.68,61.78c1.59-1.59,4.18-1.59,5.77,0c1.59,1.59,1.59,4.18,0,5.77c-1.59,1.59-4.18,1.59-5.77,0
			C138.09,65.96,138.09,63.38,139.68,61.78z"/>
		<path class="st3" d="M148.34,70.44c1.59-1.59,4.18-1.59,5.77,0c1.59,1.59,1.59,4.18,0,5.77c-1.59,1.59-4.18,1.59-5.77,0
			C146.74,74.62,146.74,72.03,148.34,70.44z"/>
		<path class="st7" d="M131.03,35.82c1.59-1.59,4.18-1.59,5.77,0c1.59,1.59,1.59,4.18,0,5.77c-1.59,1.59-4.18,1.59-5.77,0
			C129.43,39.99,129.43,37.41,131.03,35.82z"/>
		<path class="st7" d="M139.68,44.47c1.59-1.59,4.18-1.59,5.77,0c1.59,1.59,1.59,4.18,0,5.77c-1.59,1.59-4.18,1.59-5.77,0
			C138.09,48.65,138.09,46.07,139.68,44.47z"/>
		<path class="st7" d="M148.34,53.13c1.59-1.59,4.18-1.59,5.77,0c1.59,1.59,1.59,4.18,0,5.77c-1.59,1.59-4.18,1.59-5.77,0
			C146.74,57.3,146.74,54.72,148.34,53.13z"/>
		<circle class="st7" cx="159.88" cy="64.67" r="4.08"/>
		<path class="st7" d="M165.65,70.44c1.59-1.59,4.18-1.59,5.77,0c1.59,1.59,1.59,4.18,0,5.77c-1.59,1.59-4.18,1.59-5.77,0
			C164.06,74.62,164.06,72.03,165.65,70.44z"/>
		<path class="st7" d="M174.3,79.09c1.59-1.59,4.18-1.59,5.77,0c1.59,1.59,1.59,4.18,0,5.77c-1.59,1.59-4.18,1.59-5.77,0
			C172.71,83.27,172.71,80.69,174.3,79.09z"/>
		<path class="st7" d="M182.96,87.75c1.59-1.59,4.18-1.59,5.77,0c1.59,1.59,1.59,4.18,0,5.77c-1.59,1.59-4.18,1.59-5.77,0
			C181.37,91.93,181.37,89.34,182.96,87.75z"/>
		<path class="st4" d="M139.68,27.16c1.59-1.59,4.18-1.59,5.77,0c1.59,1.59,1.59,4.18,0,5.77c-1.59,1.59-4.18,1.59-5.77,0
			C138.09,31.34,138.09,28.75,139.68,27.16z"/>
		<path class="st4" d="M148.34,35.82c1.59-1.59,4.18-1.59,5.77,0c1.59,1.59,1.59,4.18,0,5.77c-1.59,1.59-4.18,1.59-5.77,0
			C146.74,39.99,146.74,37.41,148.34,35.82z"/>
		<circle class="st4" cx="159.88" cy="47.36" r="4.08"/>
		<circle class="st4" cx="168.53" cy="56.01" r="4.08"/>
		<circle class="st4" cx="177.19" cy="64.67" r="4.08"/>
		<path class="st4" d="M182.96,70.44c1.59-1.59,4.18-1.59,5.77,0c1.59,1.59,1.59,4.18,0,5.77c-1.59,1.59-4.18,1.59-5.77,0
			C181.37,74.62,181.37,72.03,182.96,70.44z"/>
		<path class="st4" d="M191.61,79.09c1.59-1.59,4.18-1.59,5.77,0c1.59,1.59,1.59,4.18,0,5.77c-1.59,1.59-4.18,1.59-5.77,0
			C190.02,83.27,190.02,80.69,191.61,79.09z"/>
		<path class="st4" d="M200.27,87.75c1.59-1.59,4.18-1.59,5.77,0c1.59,1.59,1.59,4.18,0,5.77c-1.59,1.59-4.18,1.59-5.77,0
			C198.68,91.93,198.68,89.34,200.27,87.75z"/>
		<path class="st8" d="M148.34,18.51c1.59-1.59,4.18-1.59,5.77,0c1.59,1.59,1.59,4.18,0,5.77c-1.59,1.59-4.18,1.59-5.77,0
			C146.74,22.68,146.74,20.1,148.34,18.51z"/>
		<path class="st8" d="M156.99,27.16c1.59-1.59,4.18-1.59,5.77,0c1.59,1.59,1.59,4.18,0,5.77c-1.59,1.59-4.18,1.59-5.77,0
			C155.4,31.34,155.4,28.75,156.99,27.16z"/>
		<path class="st8" d="M165.65,35.82c1.59-1.59,4.18-1.59,5.77,0c1.59,1.59,1.59,4.18,0,5.77c-1.59,1.59-4.18,1.59-5.77,0
			C164.06,39.99,164.06,37.41,165.65,35.82z"/>
		<circle class="st8" cx="177.19" cy="47.36" r="4.08"/>
		<path class="st8" d="M182.96,53.13c1.59-1.59,4.18-1.59,5.77,0c1.59,1.59,1.59,4.18,0,5.77c-1.59,1.59-4.18,1.59-5.77,0
			C181.37,57.3,181.37,54.72,182.96,53.13z"/>
		<path class="st8" d="M191.61,61.78c1.59-1.59,4.18-1.59,5.77,0c1.59,1.59,1.59,4.18,0,5.77c-1.59,1.59-4.18,1.59-5.77,0
			C190.02,65.96,190.02,63.38,191.61,61.78z"/>
		<path class="st4" d="M156.99,9.85c1.59-1.59,4.18-1.59,5.77,0c1.59,1.59,1.59,4.18,0,5.77c-1.59,1.59-4.18,1.59-5.77,0
			C155.4,14.03,155.4,11.44,156.99,9.85z"/>
		<circle class="st4" cx="168.53" cy="21.39" r="4.08"/>
		<path class="st4" d="M174.3,27.16c1.59-1.59,4.18-1.59,5.77,0c1.59,1.59,1.59,4.18,0,5.77c-1.59,1.59-4.18,1.59-5.77,0
			C172.71,31.34,172.71,28.75,174.3,27.16z"/>
		<path class="st4" d="M182.96,35.82c1.59-1.59,4.18-1.59,5.77,0c1.59,1.59,1.59,4.18,0,5.77c-1.59,1.59-4.18,1.59-5.77,0
			C181.37,39.99,181.37,37.41,182.96,35.82z"/>
		<path class="st4" d="M191.61,44.47c1.59-1.59,4.18-1.59,5.77,0c1.59,1.59,1.59,4.18,0,5.77c-1.59,1.59-4.18,1.59-5.77,0
			C190.02,48.65,190.02,46.07,191.61,44.47z"/>
		<circle class="st4" cx="203.16" cy="56.01" r="4.08"/>
		<circle class="st4" cx="211.81" cy="64.67" r="4.08"/>
		<path class="st4" d="M217.58,70.44c1.59-1.59,4.18-1.59,5.77,0c1.59,1.59,1.59,4.18,0,5.77c-1.59,1.59-4.18,1.59-5.77,0
			C215.99,74.62,215.99,72.03,217.58,70.44z"/>
	</g>
</g>
<g>
	<path d="M233.6,153.53h-2.29c-0.24,0-0.43-0.21-0.43-0.45v-1.49c0-0.09,0.07-0.28,0.14-0.36l3.48-2.7h2.19
		c0.24,0,0.43,0.21,0.43,0.45v15.22c0,0.24-0.19,0.45-0.43,0.45h-2.64c-0.26,0-0.45-0.21-0.45-0.45V153.53z"/>
	<path d="M239.77,160.86v-2.51l8.31-9.94c0.07-0.07,0.14-0.14,0.36-0.14h1.71c0.24,0,0.45,0.19,0.45,0.45l0.02,9.72h1.88
		c0.26,0,0.45,0.19,0.45,0.43v1.97c0,0.24-0.19,0.45-0.45,0.45h-1.88l0.02,2.92c0,0.24-0.21,0.45-0.45,0.45h-2.55
		c-0.24,0-0.45-0.21-0.45-0.45v-2.89h-6.98C239.96,161.31,239.77,161.1,239.77,160.86z M247.29,158.37v-4.41l-3.79,4.41H247.29z"/>
	<path d="M261.87,148.15c0.05-0.19,0.24-0.33,0.43-0.33h0.38c0.17,0,0.36,0.12,0.41,0.26l4.72,13.07c0.05,0,0.07,0,0.12,0
		l4.64-13.07c0.05-0.14,0.24-0.26,0.41-0.26h0.38c0.19,0,0.38,0.14,0.43,0.33l3.07,15.93c0.07,0.33-0.07,0.57-0.43,0.57h-0.95
		c-0.19,0-0.38-0.17-0.43-0.33l-2.12-12.21c-0.02,0-0.07,0-0.1,0l-4.38,12.52c-0.05,0.14-0.26,0.26-0.41,0.26h-0.43
		c-0.14,0-0.36-0.12-0.41-0.26l-4.43-12.52c-0.02,0-0.07,0-0.1,0l-2.07,12.21c-0.02,0.17-0.24,0.33-0.43,0.33h-0.95
		c-0.36,0-0.5-0.24-0.43-0.57L261.87,148.15z"/>
	<path d="M277.52,164.04l7.24-15.96c0.07-0.14,0.19-0.26,0.41-0.26h0.24c0.21,0,0.33,0.12,0.4,0.26l7.19,15.96
		c0.14,0.31-0.05,0.62-0.4,0.62h-0.95c-0.21,0-0.36-0.14-0.41-0.26l-1.76-3.91h-8.46l-1.74,3.91c-0.05,0.12-0.19,0.26-0.4,0.26
		h-0.95C277.57,164.65,277.38,164.34,277.52,164.04z M288.83,159.01c-1.17-2.58-2.31-5.19-3.48-7.78h-0.19l-3.48,7.78H288.83z"/>
	<path d="M294.88,148.5c0-0.24,0.19-0.45,0.45-0.45h6.17c2.86,0,5.19,2.23,5.19,5.05c0,2.18-1.45,4.01-3.53,4.84l3.26,6.02
		c0.17,0.31,0,0.69-0.4,0.69h-1.21c-0.21,0-0.33-0.12-0.38-0.21l-3.17-6.28h-4.55v6.05c0,0.24-0.21,0.45-0.45,0.45h-0.93
		c-0.26,0-0.45-0.21-0.45-0.45V148.5z M301.39,156.59c1.83,0,3.43-1.52,3.43-3.46c0-1.8-1.6-3.34-3.43-3.34h-4.62v6.8H301.39z"/>
	<path d="M308.2,163.78l8.65-13.99v-0.07h-7.5c-0.24,0-0.45-0.21-0.45-0.45v-0.76c0-0.24,0.21-0.45,0.45-0.45h9.65
		c0.24,0,0.45,0.21,0.45,0.45v0.31l-8.79,14.16v0.02h7.86c0.26,0,0.45,0.21,0.45,0.45v0.76c0,0.24-0.19,0.45-0.45,0.45h-9.86
		c-0.24,0-0.45-0.21-0.45-0.45V163.78z"/>
	<path d="M329.07,147.82c4.76,0,8.58,3.82,8.58,8.56s-3.81,8.51-8.58,8.51s-8.55-3.77-8.55-8.51S324.3,147.82,329.07,147.82z
		 M329.07,163.23c3.79,0,6.91-3.08,6.91-6.85s-3.12-6.9-6.91-6.9s-6.88,3.13-6.88,6.9S325.28,163.23,329.07,163.23z"/>
</g>
<g>
	<path d="M153.41,125c0-0.17,0.14-0.33,0.31-0.33h3.87c3.33,0,6.06,2.7,6.06,6c0,3.33-2.73,6.03-6.06,6.03h-3.87
		c-0.17,0-0.31-0.15-0.31-0.33V125z M157.31,135.51c2.83,0,4.88-2.01,4.88-4.84c0-2.82-2.05-4.83-4.88-4.83h-2.59v9.67H157.31z"/>
	<path d="M165.78,125c0-0.17,0.14-0.33,0.33-0.33h6.8c0.19,0,0.33,0.16,0.33,0.33v0.5c0,0.17-0.14,0.33-0.33,0.33h-5.8v4.19h4.95
		c0.17,0,0.33,0.15,0.33,0.33v0.5c0,0.19-0.16,0.33-0.33,0.33h-4.95v4.38h5.8c0.19,0,0.33,0.16,0.33,0.33v0.5
		c0,0.17-0.14,0.33-0.33,0.33h-6.8c-0.19,0-0.33-0.15-0.33-0.33V125z"/>
	<path d="M175.48,125c0-0.17,0.14-0.33,0.33-0.33h0.67c0.17,0,0.33,0.16,0.33,0.33v10.55h4.97c0.19,0,0.33,0.16,0.33,0.33v0.5
		c0,0.17-0.14,0.33-0.33,0.33h-5.97c-0.19,0-0.33-0.15-0.33-0.33V125z"/>
	<path d="M183.44,125c0-0.17,0.14-0.33,0.33-0.33h0.67c0.17,0,0.33,0.16,0.33,0.33v10.55h4.97c0.19,0,0.33,0.16,0.33,0.33v0.5
		c0,0.17-0.14,0.33-0.33,0.33h-5.97c-0.19,0-0.33-0.15-0.33-0.33V125z"/>
	<path d="M190.27,136.25l5.25-11.56c0.05-0.1,0.14-0.19,0.29-0.19h0.17c0.16,0,0.24,0.09,0.29,0.19l5.21,11.56
		c0.1,0.22-0.03,0.45-0.29,0.45h-0.69c-0.16,0-0.26-0.1-0.29-0.19l-1.28-2.83h-6.13l-1.26,2.83c-0.03,0.09-0.14,0.19-0.29,0.19
		h-0.69C190.31,136.7,190.17,136.47,190.27,136.25z M198.47,132.61c-0.85-1.87-1.67-3.76-2.52-5.64h-0.14l-2.52,5.64H198.47z"/>
</g>
<g>
	<path d="M361.32,82.12c0-0.17,0.16-0.33,0.33-0.33h0.69c0.17,0,0.33,0.15,0.33,0.33v11.37c0,0.17-0.16,0.33-0.33,0.33h-0.69
		c-0.17,0-0.33-0.15-0.33-0.33V82.12z"/>
	<path d="M365.67,81.93c0-0.17,0.16-0.31,0.33-0.31h0.43l7.78,9.66c0.02,0,0.02,0,0.03,0v-9.16c0-0.17,0.14-0.33,0.33-0.33h0.6
		c0.17,0,0.33,0.15,0.33,0.33v11.56c0,0.17-0.16,0.31-0.33,0.31h-0.31l-7.92-9.84h-0.02v9.35c0,0.17-0.14,0.33-0.33,0.33H366
		c-0.17,0-0.33-0.15-0.33-0.33V81.93z"/>
	<path d="M380.22,82.95h-3c-0.19,0-0.33-0.15-0.33-0.33v-0.5c0-0.17,0.14-0.33,0.33-0.33h7.32c0.19,0,0.33,0.15,0.33,0.33v0.5
		c0,0.17-0.14,0.33-0.33,0.33h-3v10.55c0,0.17-0.16,0.33-0.33,0.33h-0.66c-0.17,0-0.33-0.15-0.33-0.33V82.95z"/>
	<path d="M386.24,82.12c0-0.17,0.14-0.33,0.33-0.33h6.8c0.19,0,0.33,0.15,0.33,0.33v0.5c0,0.17-0.14,0.33-0.33,0.33h-5.8v4.19h4.95
		c0.17,0,0.33,0.15,0.33,0.33v0.5c0,0.19-0.16,0.33-0.33,0.33h-4.95v4.38h5.8c0.19,0,0.33,0.16,0.33,0.33v0.5
		c0,0.17-0.14,0.33-0.33,0.33h-6.8c-0.19,0-0.33-0.15-0.33-0.33V82.12z"/>
	<path d="M395.94,82.12c0-0.17,0.14-0.33,0.33-0.33h4.47c2.07,0,3.76,1.61,3.76,3.66c0,1.58-1.05,2.9-2.55,3.5l2.36,4.36
		c0.12,0.22,0,0.5-0.29,0.5h-0.88c-0.16,0-0.24-0.09-0.28-0.15l-2.29-4.55h-3.3v4.38c0,0.17-0.16,0.33-0.33,0.33h-0.67
		c-0.19,0-0.33-0.15-0.33-0.33V82.12z M400.65,87.98c1.33,0,2.49-1.1,2.49-2.51c0-1.31-1.16-2.42-2.49-2.42h-3.35v4.93H400.65z"/>
	<path d="M406.83,81.93c0-0.17,0.16-0.31,0.33-0.31h0.43l7.78,9.66c0.02,0,0.02,0,0.03,0v-9.16c0-0.17,0.14-0.33,0.33-0.33h0.6
		c0.17,0,0.33,0.15,0.33,0.33v11.56c0,0.17-0.16,0.31-0.33,0.31h-0.31l-7.92-9.84h-0.02v9.35c0,0.17-0.14,0.33-0.33,0.33h-0.6
		c-0.17,0-0.33-0.15-0.33-0.33V81.93z"/>
	<path d="M418.02,93.37l5.25-11.56c0.05-0.1,0.14-0.19,0.29-0.19h0.17c0.16,0,0.24,0.09,0.29,0.19l5.21,11.56
		c0.1,0.22-0.04,0.45-0.29,0.45h-0.69c-0.16,0-0.26-0.1-0.29-0.19l-1.28-2.83h-6.13l-1.26,2.83c-0.04,0.09-0.14,0.19-0.29,0.19
		h-0.69C418.05,93.82,417.91,93.6,418.02,93.37z M426.21,89.73c-0.85-1.87-1.67-3.76-2.52-5.64h-0.14l-2.52,5.64H426.21z"/>
	<path d="M429.35,93.19l6.26-10.14V83h-5.44c-0.17,0-0.33-0.15-0.33-0.33v-0.55c0-0.17,0.16-0.33,0.33-0.33h6.99
		c0.17,0,0.33,0.15,0.33,0.33v0.22l-6.37,10.26v0.02h5.7c0.19,0,0.33,0.16,0.33,0.33v0.55c0,0.17-0.14,0.33-0.33,0.33h-7.14
		c-0.17,0-0.33-0.15-0.33-0.33V93.19z"/>
	<path d="M439.3,82.12c0-0.17,0.16-0.33,0.33-0.33h0.69c0.17,0,0.33,0.15,0.33,0.33v11.37c0,0.17-0.16,0.33-0.33,0.33h-0.69
		c-0.17,0-0.33-0.15-0.33-0.33V82.12z"/>
	<path d="M448.96,81.62c3.45,0,6.21,2.77,6.21,6.2s-2.76,6.17-6.21,6.17c-3.45,0-6.2-2.73-6.2-6.17S445.51,81.62,448.96,81.62z
		 M448.96,92.79c2.74,0,5-2.23,5-4.96c0-2.73-2.26-5-5-5c-2.74,0-4.99,2.27-4.99,5C443.97,90.56,446.22,92.79,448.96,92.79z"/>
	<path d="M457.3,81.93c0-0.17,0.16-0.31,0.33-0.31h0.43l7.78,9.66c0.02,0,0.02,0,0.03,0v-9.16c0-0.17,0.14-0.33,0.33-0.33h0.6
		c0.17,0,0.33,0.15,0.33,0.33v11.56c0,0.17-0.16,0.31-0.33,0.31h-0.31l-7.92-9.84h-0.02v9.35c0,0.17-0.14,0.33-0.33,0.33h-0.6
		c-0.17,0-0.33-0.15-0.33-0.33V81.93z"/>
	<path d="M468.48,93.37l5.25-11.56c0.05-0.1,0.14-0.19,0.29-0.19h0.17c0.16,0,0.24,0.09,0.29,0.19l5.21,11.56
		c0.1,0.22-0.04,0.45-0.29,0.45h-0.69c-0.16,0-0.26-0.1-0.29-0.19l-1.28-2.83h-6.13l-1.26,2.83c-0.04,0.09-0.14,0.19-0.29,0.19
		h-0.69C468.52,93.82,468.38,93.6,468.48,93.37z M476.68,89.73c-0.85-1.87-1.67-3.76-2.52-5.64h-0.14l-2.52,5.64H476.68z"/>
	<path d="M481.07,82.12c0-0.17,0.14-0.33,0.33-0.33h0.67c0.17,0,0.33,0.15,0.33,0.33v10.55h4.97c0.19,0,0.33,0.16,0.33,0.33v0.5
		c0,0.17-0.14,0.33-0.33,0.33h-5.97c-0.19,0-0.33-0.15-0.33-0.33V82.12z"/>
	<path d="M489.02,82.12c0-0.17,0.14-0.33,0.33-0.33h6.8c0.19,0,0.33,0.15,0.33,0.33v0.5c0,0.17-0.14,0.33-0.33,0.33h-5.8v4.19h4.95
		c0.17,0,0.33,0.15,0.33,0.33v0.5c0,0.19-0.16,0.33-0.33,0.33h-4.95v4.38h5.8c0.19,0,0.33,0.16,0.33,0.33v0.5
		c0,0.17-0.14,0.33-0.33,0.33h-6.8c-0.19,0-0.33-0.15-0.33-0.33V82.12z"/>
</g>
<g>
	<path d="M239.42,75.97c2.46,0,4.49,0.92,6.23,2.45c0.21,0.21,0.23,0.53,0.03,0.74c-0.38,0.42-0.77,0.82-1.15,1.24
		c-0.21,0.24-0.41,0.21-0.67-0.03c-1.21-1.08-2.79-1.79-4.36-1.79c-3.64,0-6.43,3.17-6.43,6.86c0,3.67,2.79,6.83,6.43,6.83
		c2.13,0,3.59-0.79,3.85-0.9v-2.96h-2.51c-0.28,0-0.49-0.21-0.49-0.47v-1.53c0-0.29,0.21-0.5,0.49-0.5h4.67
		c0.26,0,0.46,0.24,0.46,0.5c0,2.11,0.03,4.27,0.03,6.38c0,0.13-0.1,0.34-0.21,0.42c0,0-2.64,1.74-6.36,1.74
		c-5.1,0-9.23-4.19-9.23-9.47C230.19,80.22,234.32,75.97,239.42,75.97z"/>
	<path d="M249.63,76.73c0-0.26,0.23-0.5,0.49-0.5h1.69c0.26,0,0.49,0.24,0.49,0.5V94.2c0,0.26-0.23,0.5-0.49,0.5h-1.69
		c-0.26,0-0.49-0.24-0.49-0.5V76.73z"/>
	<path d="M264.78,75.97c5.13,0,9.23,4.25,9.23,9.52c0,5.28-4.1,9.47-9.23,9.47s-9.2-4.19-9.2-9.47
		C255.57,80.22,259.65,75.97,264.78,75.97z M264.78,92.33c3.67,0,6.67-3.06,6.67-6.83c0-3.75-3-6.89-6.67-6.89
		c-3.64,0-6.64,3.14-6.64,6.89C258.14,89.26,261.14,92.33,264.78,92.33z"/>
	<path d="M277.29,76.73c0-0.26,0.21-0.5,0.49-0.5h6.97c3.08,0,5.59,2.51,5.59,5.65c0,2.43-1.56,4.43-3.79,5.36l3.51,6.7
		c0.18,0.34,0,0.76-0.44,0.76h-2c-0.21,0-0.36-0.13-0.41-0.24l-3.41-6.99h-3.87v6.73c0,0.26-0.23,0.5-0.49,0.5h-1.67
		c-0.28,0-0.49-0.24-0.49-0.5V76.73z M284.55,85.2c1.67,0,3.13-1.45,3.13-3.27c0-1.71-1.46-3.14-3.13-3.14h-4.56v6.41H284.55z"/>
	<path d="M293.96,76.44c0-0.26,0.23-0.47,0.49-0.47h0.64l11.13,13.24h0.03V76.73c0-0.26,0.21-0.5,0.49-0.5h1.64
		c0.26,0,0.49,0.24,0.49,0.5v17.76c0,0.26-0.23,0.47-0.49,0.47h-0.67l-11.12-13.61h-0.03V94.2c0,0.26-0.21,0.5-0.49,0.5h-1.62
		c-0.26,0-0.49-0.24-0.49-0.5V76.44z"/>
	<path d="M311.04,94.01l7.87-17.76c0.08-0.16,0.31-0.29,0.44-0.29h0.26c0.13,0,0.36,0.13,0.44,0.29l7.82,17.76
		c0.15,0.34-0.05,0.69-0.44,0.69h-1.62c-0.31,0-0.49-0.16-0.59-0.4l-1.59-3.61h-8.38c-0.51,1.21-1.05,2.4-1.56,3.61
		c-0.08,0.18-0.28,0.4-0.59,0.4h-1.62C311.09,94.7,310.88,94.36,311.04,94.01z M322.65,88.42l-3.15-7.23h-0.13l-3.13,7.23H322.65z"
		/>
	<path d="M331.55,78.71h-4.18c-0.28,0-0.49-0.24-0.49-0.5v-1.48c0-0.26,0.21-0.5,0.49-0.5h11.02c0.28,0,0.49,0.24,0.49,0.5v1.48
		c0,0.26-0.21,0.5-0.49,0.5h-4.18V94.2c0,0.26-0.23,0.5-0.49,0.5h-1.69c-0.26,0-0.49-0.24-0.49-0.5V78.71z"/>
	<path d="M337.88,94.01l7.87-17.76c0.08-0.16,0.31-0.29,0.44-0.29h0.26c0.13,0,0.36,0.13,0.44,0.29l7.82,17.76
		c0.15,0.34-0.05,0.69-0.44,0.69h-1.62c-0.31,0-0.49-0.16-0.59-0.4l-1.59-3.61h-8.38c-0.51,1.21-1.05,2.4-1.56,3.61
		c-0.08,0.18-0.28,0.4-0.59,0.4h-1.62C337.93,94.7,337.73,94.36,337.88,94.01z M349.49,88.42l-3.15-7.23h-0.13l-3.13,7.23H349.49z"
		/>
</g>
<g>
	<path d="M214.75,104.45c0.05-0.38,0.32-0.7,0.82-0.7h0.73c0.36,0,0.64,0.19,0.77,0.47l10.01,22.1c0.09,0,0.09,0,0.14,0l10.01-22.1
		c0.14-0.28,0.36-0.47,0.77-0.47h0.73c0.5,0,0.77,0.33,0.82,0.7l5.37,31.47c0.14,0.66-0.23,1.08-0.82,1.08h-4.14
		c-0.41,0-0.77-0.38-0.86-0.7l-2.69-17.75c-0.05,0-0.14,0-0.14,0l-7.97,18.4c-0.09,0.28-0.36,0.52-0.77,0.52h-0.82
		c-0.41,0-0.64-0.23-0.77-0.52l-8.06-18.4c0,0-0.09,0-0.14,0l-2.64,17.75c-0.05,0.33-0.41,0.7-0.82,0.7h-4.1
		c-0.59,0-0.96-0.42-0.86-1.08L214.75,104.45z"/>
	<path d="M247.71,135.77l14.16-31.52c0.14-0.28,0.36-0.52,0.77-0.52h0.46c0.46,0,0.64,0.23,0.77,0.52l14.02,31.52
		c0.27,0.61-0.09,1.22-0.77,1.22h-3.96c-0.68,0-1-0.28-1.32-0.94L269.6,131h-13.61l-2.23,5.06c-0.18,0.47-0.59,0.94-1.32,0.94h-3.96
		C247.8,136.99,247.43,136.38,247.71,135.77z M267.37,125.8l-4.55-10.3h-0.14l-4.46,10.3H267.37z"/>
	<path d="M285.31,109.83h-6.96c-0.5,0-0.87-0.42-0.87-0.89v-3.84c0-0.47,0.36-0.89,0.87-0.89h19.89c0.5,0,0.87,0.42,0.87,0.89v3.84
		c0,0.47-0.36,0.89-0.87,0.89h-6.96v26.27c0,0.47-0.41,0.89-0.87,0.89h-4.23c-0.46,0-0.87-0.42-0.87-0.89V109.83z"/>
	<path d="M304.52,105.1c0-0.47,0.36-0.89,0.87-0.89h18.53c0.5,0,0.87,0.42,0.87,0.89v3.84c0,0.47-0.36,0.89-0.87,0.89h-13.47v7.68
		h11.24c0.46,0,0.87,0.42,0.87,0.89v3.89c0,0.51-0.41,0.89-0.87,0.89h-11.24v8.2h13.47c0.5,0,0.87,0.42,0.87,0.89v3.84
		c0,0.47-0.36,0.89-0.87,0.89h-18.53c-0.5,0-0.87-0.42-0.87-0.89V105.1z"/>
	<path d="M335.29,104.45c0.05-0.38,0.32-0.7,0.82-0.7h0.73c0.36,0,0.64,0.19,0.77,0.47l10.01,22.1c0.09,0,0.09,0,0.14,0l10.01-22.1
		c0.14-0.28,0.36-0.47,0.77-0.47h0.73c0.5,0,0.77,0.33,0.82,0.7l5.37,31.47c0.14,0.66-0.23,1.08-0.82,1.08h-4.14
		c-0.41,0-0.77-0.38-0.87-0.7l-2.69-17.75c-0.05,0-0.14,0-0.14,0l-7.96,18.4c-0.09,0.28-0.36,0.52-0.77,0.52h-0.82
		c-0.41,0-0.64-0.23-0.77-0.52l-8.06-18.4c0,0-0.09,0-0.14,0l-2.64,17.75c-0.05,0.33-0.41,0.7-0.82,0.7h-4.1
		c-0.59,0-0.96-0.42-0.87-1.08L335.29,104.45z"/>
	<path d="M368.24,135.77l14.16-31.52c0.14-0.28,0.36-0.52,0.77-0.52h0.46c0.46,0,0.64,0.23,0.77,0.52l14.02,31.52
		c0.27,0.61-0.09,1.22-0.77,1.22h-3.96c-0.68,0-1-0.28-1.32-0.94l-2.23-5.06h-13.61l-2.23,5.06c-0.18,0.47-0.59,0.94-1.32,0.94
		h-3.96C368.33,136.99,367.97,136.38,368.24,135.77z M387.91,125.8l-4.55-10.3h-0.14l-4.46,10.3H387.91z"/>
	<path d="M405.84,109.83h-6.96c-0.5,0-0.87-0.42-0.87-0.89v-3.84c0-0.47,0.36-0.89,0.87-0.89h19.89c0.5,0,0.86,0.42,0.86,0.89v3.84
		c0,0.47-0.36,0.89-0.86,0.89h-6.96v26.27c0,0.47-0.41,0.89-0.87,0.89h-4.23c-0.46,0-0.86-0.42-0.86-0.89V109.83z"/>
	<path d="M425.05,105.1c0-0.47,0.41-0.89,0.87-0.89h4.23c0.46,0,0.86,0.42,0.86,0.89v31c0,0.47-0.41,0.89-0.86,0.89h-4.23
		c-0.46,0-0.87-0.42-0.87-0.89V105.1z"/>
	<path d="M454.09,103.74c4.6,0,7.92,1.5,11.02,4.36c0.41,0.38,0.41,0.94,0.04,1.31l-2.78,2.95c-0.32,0.37-0.77,0.37-1.14,0
		c-1.91-1.73-4.46-2.76-7.01-2.76c-5.83,0-10.15,5.01-10.15,10.91c0,5.85,4.37,10.82,10.2,10.82c2.73,0,5.05-1.08,6.96-2.67
		c0.36-0.33,0.87-0.28,1.14,0l2.82,3c0.36,0.33,0.27,0.94-0.05,1.26c-3.09,3.09-7.01,4.54-11.06,4.54c-9.1,0-16.43-7.45-16.43-16.81
		C437.66,111.28,444.99,103.74,454.09,103.74z"/>
	<path d="M467.66,135.77l14.16-31.52c0.14-0.28,0.36-0.52,0.77-0.52h0.46c0.46,0,0.64,0.23,0.77,0.52l14.02,31.52
		c0.27,0.61-0.09,1.22-0.77,1.22h-3.96c-0.68,0-1-0.28-1.32-0.94l-2.23-5.06h-13.61l-2.23,5.06c-0.18,0.47-0.59,0.94-1.32,0.94
		h-3.96C467.75,136.99,467.38,136.38,467.66,135.77z M487.32,125.8l-4.55-10.3h-0.14l-4.46,10.3H487.32z"/>
</g>
</svg>
